# xmcd
#
# Track frame offsets:
#	150
#	45777
#	92277
#	140213
#
# Disc length: 2561 seconds
#
# Revision: 4
# Processed by: cddbd v1.5.2PL0 Copyright (c) Steve Scherf et al.
# Submitted via: EZCDAudioConverter 8.0.2.1
#
DISCID=2709ff04
DTITLE=Hòa Tấu - Asia Golden Cha cha cha 2
DYEAR=2002
DGENRE=Instrumental
TTITLE0=LK Golden Chachacha 1
TTITLE1=LK Golden Chachacha 2
TTITLE2=LK Golden Chachacha 3
TTITLE3=LK Golden Chachacha 4
EXTD=
EXTT0=
EXTT1=
EXTT2=
EXTT3=
PLAYORDER=
